<?xml version="1.0" encoding="UTF-8" standalone="no"?>
<!-- Created with Inkscape (http://www.inkscape.org/) -->

<svg
   xmlns:dc="http://purl.org/dc/elements/1.1/"
   xmlns:cc="http://creativecommons.org/ns#"
   xmlns:rdf="http://www.w3.org/1999/02/22-rdf-syntax-ns#"
   xmlns:svg="http://www.w3.org/2000/svg"
   xmlns="http://www.w3.org/2000/svg"
   xmlns:sodipodi="http://sodipodi.sourceforge.net/DTD/sodipodi-0.dtd"
   xmlns:inkscape="http://www.inkscape.org/namespaces/inkscape"
   version="1.1"
   id="svg64"
   width="106.66667"
   height="106.66667"
   viewBox="0 0 106.66667 106.66667"
   sodipodi:docname="logo.svg"
   inkscape:version="0.92.5 (2060ec1f9f, 2020-04-08)">
  <metadata
     id="metadata70">
    <rdf:RDF>
      <cc:Work
         rdf:about="">
        <dc:format>image/svg+xml</dc:format>
        <dc:type
           rdf:resource="http://purl.org/dc/dcmitype/StillImage" />
        <dc:title></dc:title>
      </cc:Work>
    </rdf:RDF>
  </metadata>
  <defs
     id="defs68" />
  <sodipodi:namedview
     pagecolor="#ffffff"
     bordercolor="#666666"
     borderopacity="1"
     objecttolerance="10"
     gridtolerance="10"
     guidetolerance="10"
     inkscape:pageopacity="0"
     inkscape:pageshadow="2"
     inkscape:window-width="1848"
     inkscape:window-height="1016"
     id="namedview66"
     showgrid="false"
     inkscape:zoom="7.8562496"
     inkscape:cx="53.333336"
     inkscape:cy="58.424824"
     inkscape:window-x="72"
     inkscape:window-y="387"
     inkscape:window-maximized="1"
     inkscape:current-layer="svg64" />
  <g
     id="g74"
     transform="matrix(0.91772231,0,0,0.92943862,5.2151208,3.2707276)">
    <path
       style="fill:#d0d0d0;fill-opacity:1;stroke-width:1.33333337"
       d="m 0,96.142655 c 0,-1.388208 1.05,-2.928559 2.3333334,-3.423 2.2222223,-0.856176 2.2222223,-0.961361 0,-2.208906 -2.85193439,-1.60106 -3.10314858,-8.212004 -0.3973857,-10.457588 2.6858786,-2.229081 6.3915678,-1.242129 8.0842843,2.153122 l 1.420542,2.849325 2.84539,-3.194469 c 3.640415,-4.087031 6.426597,-4.047762 9.163415,0.129146 3.667785,5.597751 -1.435604,16.676385 -7.681997,16.676385 -2.993021,0 -3.319461,-4.708343 -0.404007,-5.827107 1.764275,-0.677016 1.720607,-1.104672 -0.333333,-3.264482 -2.73648,-2.87753 -4.363575,-2.477241 -4.363575,1.073504 0,2.690051 -5.8785029,8.018085 -8.8464785,8.018085 C 0.81908481,98.66667 0,97.530863 0,96.142655 Z M 40.385013,87.380839 C 27.066877,82.996913 14.947012,70.62795 11.14102,57.535792 1.334366,23.802089 40.000757,-4.7522963 69.258521,14.617138 c 7.723748,5.113332 16.492804,16.60688 18.6898,24.496609 4.087173,14.677625 0.392827,28.958198 -10.160559,39.27587 -8.842384,8.644887 -25.956572,12.758955 -37.402749,8.991222 z M 56.906804,71.346708 c 0.984419,-2.843429 2.735698,-6.215014 3.89173,-7.492415 3.729649,-4.121218 1.874277,-7.137747 -4.679144,-7.607514 -3.588082,-0.257203 -7.458119,-1.640657 -9.988498,-3.570672 -2.271989,-1.732932 -4.730891,-3.278433 -5.464224,-3.434449 -2.757053,-0.58656 -7.333334,-4.279073 -7.333334,-5.917126 0,-2.11672 5.97301,-3.724389 9.581815,-2.578999 2.4238,0.769284 2.597055,0.437503 1.760498,-3.371318 -0.794388,-3.616826 -0.510639,-4.333683 1.972398,-4.983013 2.001997,-0.523533 2.703131,-1.512306 2.263761,-3.192462 -0.350082,-1.338714 0.201548,-3.129553 1.225842,-3.979642 2.435487,-2.021275 2.361066,-3.778083 -0.201705,-4.761511 -1.172445,-0.449909 -2.801936,0.217052 -3.77222,1.543996 -1.37143,1.875542 -2.248726,2.046748 -4.450314,0.868495 -2.276626,-1.218415 -3.680913,-0.78752 -8.2719,2.538175 -3.041361,2.203151 -6.676647,5.891652 -8.078412,8.196671 -2.527466,4.156084 -2.525202,4.223891 0.272333,8.152665 1.55155,2.17895 4.659468,4.92488 6.906488,6.10207 7.444526,3.900104 14.12475,11.42336 14.12475,15.907267 0,4.642036 4.952295,13.915644 7.056647,13.214194 0.7665,-0.2555 2.199069,-2.790986 3.183489,-5.634412 z M 78.666669,44.888891 c 0,-7.26103 -1.021064,-8.312167 -4.177007,-4.300035 -3.116133,3.961521 -3.169006,6.882956 -0.156326,8.63768 3.822357,2.22632 4.333333,1.714836 4.333333,-4.337645 z M 85.580504,25.754905 C 78.374186,22.871953 83.749713,6.6666669 91.912348,6.6666669 c 2.304014,0 1.622659,4.9706411 -0.809277,5.9038631 -1.968523,0.755393 -1.890284,1.093966 0.666667,2.884924 3.537273,2.477603 3.719401,6.053589 0.45861,9.004563 -2.516164,2.277099 -3.6437,2.496723 -6.647844,1.294888 z M 97.600003,25.066667 C 94.713466,22.18013 95.668459,13.543666 99.27273,9.9393943 c 1.8,-1.8 4.2,-3.2727274 5.33333,-3.2727274 2.36485,0 2.7653,4.0953051 0.6111,6.2495101 -1.04379,1.04379 -1.04379,1.700258 0,2.345355 1.94722,1.203447 1.84584,7.808809 -0.15049,9.805135 -0.88,0.88 -2.56,1.600001 -3.73333,1.600001 -1.17334,0 -2.853337,-0.720001 -3.733337,-1.600001 z"
       id="path90"
       inkscape:connector-curvature="0" />
    <path
       style="fill:#b9b9b9;fill-opacity:1;stroke-width:1.33333337"
       d="m 0,96.142655 c 0,-1.388208 1.05,-2.928559 2.3333334,-3.423 2.2222223,-0.856176 2.2222223,-0.961361 0,-2.208906 C -0.56799794,88.881959 -0.751887,82.283867 2.0394853,79.967233 3.5989566,78.672986 4.8542115,78.627834 7.3728188,79.775388 12.051425,81.907104 12.063349,90.724534 7.3939401,95.393943 3.4929038,99.294978 0,99.648671 0,96.142655 Z m 13.79092,0.459956 c -0.451033,-1.175375 0.221594,-2.805256 1.562246,-3.785565 2.14464,-1.568199 2.159532,-1.796244 0.167233,-2.560762 -1.353829,-0.519513 -2.187065,-2.361259 -2.187065,-4.834189 0,-4.86529 3.94384,-7.592883 7.9097,-5.470419 5.375453,2.876855 4.888629,11.511347 -0.906015,16.069415 -4.048754,3.184751 -5.497751,3.313472 -6.546099,0.58152 z M 39.879609,86.386623 C 25.667798,81.557824 14.00824,69.307677 10.584528,55.607663 6.2631154,38.3155 16.749167,18.455263 34.008214,11.243973 37.017164,9.9867535 42.892572,9.0980395 48.19527,9.0980395 c 19.308909,0 35.790295,13.5645225 39.769218,32.7308915 C 90.995704,56.43022 87.717584,67.181818 77.026505,77.703384 66.614466,87.950333 53.502478,91.015315 39.879609,86.386623 Z M 56.548634,72.666669 c 0.798252,-2.2 2.551044,-5.620499 3.895092,-7.601108 3.872749,-5.70694 2.548381,-8.327974 -4.455227,-8.817265 -3.810891,-0.266238 -7.200603,-1.484389 -9.321831,-3.34996 -1.833333,-1.612373 -5.583333,-4.068588 -8.333333,-5.458255 -2.750001,-1.389668 -5.000001,-3.011076 -5.000001,-3.603129 0,-2.037479 5.587214,-4.062319 8.908881,-3.228633 3.122988,0.78382 3.272605,0.586626 2.438014,-3.213243 -0.770034,-3.50594 -0.431994,-4.222122 2.523174,-5.345675 2.297953,-0.87368 3.154217,-1.969999 2.621964,-3.357029 -0.434701,-1.132815 -0.02867,-2.977453 0.902292,-4.099194 2.613664,-3.149272 -0.525976,-5.776928 -4.177667,-3.496409 -1.494232,0.933164 -3.920001,1.314774 -5.390599,0.848025 -4.611024,-1.463483 -18.459534,10.27846 -18.487742,15.675479 -0.0104,1.979404 8.557101,10.599878 12.526275,12.603803 6.628209,3.3464 10.035417,7.191859 10.918157,12.322501 1.30208,7.567921 4.873527,14.920627 7.042143,14.497988 1.066472,-0.207843 2.592154,-2.177896 3.390408,-4.377896 z M 78.666669,44.745357 c 0,-7.384705 -1.668519,-8.55878 -5.171644,-3.639093 -2.463531,3.459708 -2.5263,4.064965 -0.693017,6.682344 3.428838,4.895354 5.864661,3.631372 5.864661,-3.043251 z m 6.095239,-20.173928 c -3.259419,-3.259418 -2.652433,-10.802114 1.177488,-14.6320347 1.8,-1.8 4.2,-3.2727274 5.333334,-3.2727274 2.663329,0 2.688378,4.8071311 0.03036,5.8271071 -1.720241,0.660118 -1.618446,1.190873 0.666666,3.475985 3.373032,3.373027 3.377964,4.682524 0.03025,8.030242 -3.215124,3.215124 -4.493478,3.316047 -7.238095,0.571428 z m 13.571428,0.655106 c -3.685569,-2.146646 -3.12803,-11.219716 0.939394,-15.2871407 1.8,-1.8 4.2,-3.2727274 5.33333,-3.2727274 2.83036,0 2.60854,4.8369241 -0.27272,5.9470151 -2.22223,0.856176 -2.22223,0.961361 0,2.208905 4.13175,2.319542 2.28519,11.935361 -2.26667,11.803535 -0.77,-0.02229 -2.45,-0.652113 -3.733334,-1.399587 z"
       id="path88"
       inkscape:connector-curvature="0" />
    <path
       style="fill:#a3a3a3;fill-opacity:1;stroke-width:1.33333337"
       d="M 0.45758677,96.602611 C 0.00655309,95.427236 0.67918047,93.797355 2.0198321,92.817046 4.1644717,91.248847 4.1793645,91.020802 2.1870655,90.256284 -1.0244938,89.023893 -0.68643638,81.794529 2.6666668,80.000003 10.22567,75.954546 14.127471,88.660411 7.3939396,95.393943 3.6180489,99.169834 1.5790623,99.525128 0.45758677,96.602611 Z M 13.948075,97.249319 c -0.481784,-0.779544 0.09795,-2.493515 1.288281,-3.808824 1.934673,-2.137789 1.948529,-2.570508 0.130614,-4.079242 -2.889446,-2.398028 -2.533162,-7.666756 0.63303,-9.36125 3.494091,-1.869982 7.694174,0.317249 8.759426,4.561548 0.941381,3.750761 -2.385087,10.7875 -6.018904,12.73226 -3.208971,1.717388 -3.706399,1.712771 -4.792447,-0.04449 z M 33.428938,83.196821 C 18.178173,75.458894 10.006545,62.946805 10.006545,47.333335 c 0,-21.718145 16.412678,-38.2352955 37.993457,-38.2352955 14.062279,0 24.98228,5.9520075 33.125878,18.0554425 7.219496,10.72999 8.581532,21.516358 4.196789,33.235632 C 79.581588,75.733532 66.506582,85.355411 50.089564,86.317109 41.818165,86.801643 39.782203,86.420336 33.428938,83.196821 Z M 56.000002,75.38927 c 0,-0.91232 1.5,-4.479876 3.333333,-7.927901 1.833334,-3.448027 3.333334,-7.221244 3.333334,-8.38493 0,-3.032864 -4.016738,-5.657521 -8.666667,-5.66306 -4.030176,-0.0048 -20.634505,-7.862895 -20.65542,-9.775296 -0.02464,-2.252938 6.261913,-3.942503 9.07251,-2.438318 3.137008,1.678876 4.669655,0.281768 2.848683,-2.596758 -2.068174,-3.269294 -1.417843,-5.277858 2.147792,-6.63351 1.958545,-0.744637 3.028169,-1.92142 2.509403,-2.760803 -0.49729,-0.804632 -0.09973,-2.966067 0.883468,-4.803188 1.583554,-2.958899 1.496308,-3.553243 -0.764242,-5.206196 -3.406972,-2.491239 -6.042195,-2.360096 -6.042195,0.300691 0,1.709085 -0.867816,1.993104 -4.109149,1.344837 -2.260032,-0.452007 -5.410032,-0.140757 -7,0.691664 -3.77509,1.976435 -11.900037,11.014107 -10.363261,11.527428 0.654127,0.218495 0.896628,1.516523 0.538894,2.884506 -0.96106,3.675097 4.349299,9.976451 11.846035,14.056687 3.628721,1.974997 7.074788,4.881799 7.657927,6.459557 0.583138,1.57776 1.743345,4.818655 2.578237,7.201989 3.226807,9.211445 4.896624,13.032759 6.063739,13.87664 1.698084,1.227797 4.787579,-0.162236 4.787579,-2.154039 z M 78.666669,44.163261 c 0,-7.034497 -2.331756,-10.631504 -5.098392,-7.864868 -0.862551,0.862551 -1.568275,2.683686 -1.568275,4.046964 0,1.363279 -0.598186,2.10899 -1.329302,1.657135 -0.841311,-0.519957 -0.810688,0.542505 0.08341,2.894175 1.482331,3.898827 3.455716,5.715404 6.245888,5.749584 1.108324,0.01358 1.666668,-2.158264 1.666668,-6.48299 z M 98.095242,24.571429 C 94.835823,21.312011 95.442808,13.769315 99.27273,9.9393943 c 1.8,-1.8 3.91883,-3.2727274 4.70851,-3.2727274 2.61851,0 3.08298,4.0819911 0.6656,5.8496241 -2.14464,1.568199 -2.15953,1.796244 -0.16724,2.560761 3.15839,1.211986 2.8802,8.458173 -0.39194,10.20937 -3.33541,1.785059 -3.51363,1.763794 -5.992418,-0.714993 z M 84.266669,23.733334 c -2.799754,-2.799755 -1.89976,-10.221452 1.672727,-13.7939397 1.8,-1.8 3.918832,-3.2727274 4.708513,-3.2727274 2.703766,0 3.057342,4.0997611 0.519327,6.0216551 -1.375312,1.041445 -1.771677,1.912618 -0.880812,1.935941 0.890866,0.02332 2.261976,1.242404 3.046912,2.709071 2.998896,5.603488 -4.540941,10.925726 -9.066667,6.4 z"
       id="path86"
       inkscape:connector-curvature="0" />
    <path
       style="fill:#8c8c8c;fill-opacity:1;stroke-width:1.33333337"
       d="M 0.41787117,96.499114 C 0.00408516,95.420804 0.79078808,93.71023 2.1660999,92.697838 4.5128783,90.97033 4.5231633,90.801492 2.3333334,89.952577 c -3.3200048,-1.28704 -3.09115944,-8.119841 0.3333334,-9.952574 1.8946515,-1.013987 3.4386819,-1.013987 5.3333334,0 3.2598808,1.744634 3.6697878,9.974493 0.7074549,14.203817 -2.5205861,3.59864 -7.2833848,4.917407 -8.28958393,2.295294 z M 13.948075,97.249319 c -0.481784,-0.779544 0.07055,-2.463236 1.227389,-3.74154 1.916467,-2.117671 1.912713,-2.514837 -0.04225,-4.469802 -1.443813,-1.443814 -1.862703,-3.272808 -1.280675,-5.591793 0.690158,-2.749809 1.674754,-3.446181 4.872535,-3.446181 5.382814,0 7.40516,4.845073 4.712387,11.289787 -2.384165,5.70611 -7.615518,8.99151 -9.489383,5.959529 z M 42.000001,85.326573 C 30.311941,83.503763 18.695953,74.443968 13.283428,62.929318 9.1673252,54.172686 9.227122,39.815636 13.415734,31.163118 19.794311,17.986735 30.915089,10.47975 45.362564,9.5976875 61.352566,8.6214484 71.970349,13.971928 80.984461,27.548162 c 4.876311,7.344255 5.015542,7.890279 5.015542,19.669562 0,10.774704 -0.400171,12.796319 -3.615703,18.266075 C 73.742856,80.18326 58.149295,87.845137 42.000001,85.326573 Z M 53.890952,77.85735 c 1.159978,-0.445125 2.10905,-1.555761 2.10905,-2.46808 0,-0.91232 1.5,-4.479876 3.333333,-7.927901 3.913108,-7.359544 4.117198,-9.718566 1.126683,-13.023046 -1.552219,-1.715184 -4.099174,-2.438321 -8.587978,-2.438321 -3.509729,0 -6.767769,-0.625278 -7.240088,-1.389506 -0.472319,-0.764228 -3.207729,-2.329376 -6.078689,-3.478107 -2.870961,-1.14873 -5.219929,-2.638302 -5.219929,-3.310162 0,-2.172812 6.628115,-3.936682 9.339717,-2.485476 2.919066,1.562237 4.35356,0.04972 2.592724,-2.733744 -2.068174,-3.269294 -1.417843,-5.277858 2.147792,-6.63351 1.958545,-0.744637 3.028169,-1.92142 2.509403,-2.760803 -0.49729,-0.804632 -0.142954,-2.885303 0.787416,-4.623712 1.367436,-2.55508 1.366288,-3.552696 -0.006,-5.206196 -2.215792,-2.669865 -6.253271,-2.614777 -7.77595,0.106093 -0.992297,1.773136 -1.723193,1.873723 -4.155664,0.571904 -2.40624,-1.287781 -3.597064,-1.15672 -6.445023,0.709335 -3.387037,2.219272 -9.212612,8.407064 -11.401274,12.110172 -1.766924,2.989548 6.894155,13.654558 14.022294,17.26666 6.581508,3.335105 9.051232,6.399422 9.051232,11.23034 0,1.585064 0.89589,4.474508 1.990867,6.420989 1.094976,1.946482 2.580126,5.189057 3.300332,7.205723 1.426362,3.993991 1.507066,4.044123 4.599752,2.857348 z M 78.801758,49.000002 c 0.358611,-4.42437 -0.538416,-11.262267 -1.78235,-13.586581 -1.32551,-2.476737 -1.522672,-2.430097 -4.535908,1.072999 -1.732591,2.014256 -3.150164,4.715689 -3.150164,6.003184 0,4.858445 9.095416,11.112367 9.468422,6.510398 z m 5.188879,-25.677953 c -3.532568,-4.256483 1.578439,-16.6553821 6.865591,-16.6553821 2.535062,0 2.752428,4.1716581 0.311008,5.9688321 -2.278779,1.677452 -2.302755,1.917435 -0.270325,2.7057 3.034309,1.176838 4.044475,4.3208 2.384732,7.422058 -1.639556,3.063538 -6.947318,3.382765 -9.291006,0.558792 z m 13.666667,0.468586 C 94.807115,20.940446 95.669951,13.542174 99.27273,9.9393943 c 3.81187,-3.8118693 5.81532,-4.1300255 6.97511,-1.1076739 0.50684,1.3208136 -0.0657,2.6667486 -1.46821,3.4516506 -2.13191,1.193072 -2.13857,1.403927 -0.0916,2.900697 1.41891,1.037533 2.04749,3.019446 1.7597,5.548351 -0.34807,3.058562 -1.19174,4.021196 -3.79042,4.324883 -1.83848,0.214849 -4.088484,-0.355151 -5,-1.266667 z"
       id="path84"
       inkscape:connector-curvature="0" />
    <path
       style="fill:#767676;fill-opacity:1;stroke-width:1.33333337"
       d="m 0,96.163263 c 0,-0.643541 0.91513702,-1.929571 2.0336378,-2.857844 1.8187178,-1.509401 1.8073946,-1.937765 -0.107144,-4.053306 -3.3753686,-3.72974 -2.00341274,-8.500561 2.5954969,-9.025545 2.1897754,-0.249972 4.3410186,0.326045 4.9795831,1.333333 2.0339752,3.208446 1.2291322,9.868533 -1.5535144,12.855354 C 5.2711059,97.288627 0,98.447896 0,96.163263 Z m 13.333334,-0.02779 c 0,-0.756241 1.258594,-2.048564 2.796876,-2.871826 L 18.927085,91.766804 16.13021,89.807796 C 11.243045,86.384694 13.362492,80 19.385981,80 c 1.781325,0 3.448396,1.307528 4.438973,3.481606 2.302779,5.05405 -1.690871,13.016215 -6.824953,13.606957 -2.016667,0.232044 -3.666667,-0.196847 -3.666667,-0.953088 z M 32.276642,81.888139 C 25.138355,78.33098 15.342251,68.518314 13.087613,62.666669 4.9268878,41.486472 15.315615,17.86503 35.865632,10.874985 c 6.508741,-2.2139346 18.610414,-1.8990539 26.183274,0.681279 7.526251,2.564451 17.314894,11.64343 21.322958,19.77707 3.817897,7.747733 3.637232,24.619925 -0.344313,32.155295 -4.697811,8.890951 -9.291755,13.435463 -17.9606,17.767336 -10.967336,5.480442 -22.610639,5.704916 -32.790309,0.632174 z M 54.0757,77.646252 c 0.774968,-0.538771 2.234498,-3.079583 3.243399,-5.64625 1.008901,-2.566666 2.924838,-6.097581 4.257635,-7.846479 3.115137,-4.087682 3.050804,-5.313669 -0.475817,-9.067587 -2.227839,-2.371425 -4.341007,-3.085934 -9.126683,-3.085934 -4.47373,0 -6.887991,-0.729726 -8.572506,-2.591092 -1.289699,-1.425102 -4.082691,-2.972775 -6.20665,-3.439275 -2.12396,-0.466499 -3.861744,-1.415359 -3.861744,-2.108575 0,-2.203755 6.603698,-3.988581 9.339717,-2.524309 2.919066,1.562237 4.35356,0.04972 2.592724,-2.733744 -2.068174,-3.269294 -1.417843,-5.277858 2.147792,-6.63351 1.877461,-0.713809 3.057135,-1.874553 2.621497,-2.579429 -0.435637,-0.704878 -0.02612,-2.508075 0.910042,-4.007106 1.867392,-2.990171 0.665734,-6.07624 -3.35305,-8.611224 -1.754833,-1.10692 -2.675589,-0.769925 -4.323117,1.582249 -1.687187,2.408798 -2.59318,2.721247 -4.66912,1.610238 -4.343083,-2.324348 -12.970342,3.611932 -17.22809,11.854375 -1.429368,2.767068 -1.14409,3.825306 2.336337,8.666667 2.180481,3.033104 7.18085,7.33224 11.111928,9.553633 6.008431,3.395276 7.271386,4.776364 7.925351,8.666667 0.427863,2.545274 1.785196,6.547972 3.016295,8.894888 1.231099,2.346917 2.238362,5.796917 2.238362,7.666667 0,3.422387 2.926644,4.568406 6.075698,2.37913 z M 78.873829,43.968013 c -0.252729,-3.271494 -1.054024,-7.059035 -1.780655,-8.416757 -1.260406,-2.355091 -1.46916,-2.329536 -4.540493,0.55583 -3.944784,3.705934 -4.126131,8.319463 -0.4707,11.974894 4.554207,4.554207 7.331521,2.87193 6.791848,-4.113967 z m 5.450142,-20.177378 c -3.406682,-3.406681 -1.12727,-12.481493 3.928114,-15.6386322 4.013887,-2.5067137 6.826738,0.5546995 3.081251,3.3535302 -2.566407,1.917759 -2.575197,2.060503 -0.23381,3.796669 3.7187,2.757459 2.536764,9.251153 -1.775555,9.7551 -1.838484,0.214849 -4.088484,-0.355151 -5,-1.266667 z m 13.333333,0 C 94.04322,20.176551 96.76315,10.628676 102.09942,8.1973091 c 4.05312,-1.8467273 5.6468,0.3998314 2.6403,3.7219689 -2.00202,2.212206 -2.00588,2.48786 -0.0455,3.240149 1.49711,0.574496 2.01663,2.130647 1.72423,5.16474 -0.33783,3.505463 -1.06282,4.417798 -3.7612,4.733135 -1.83848,0.214849 -4.08848,-0.355151 -4.999996,-1.266667 z"
       id="path82"
       inkscape:connector-curvature="0" />
    <path
       style="fill:#606060;fill-opacity:1;stroke-width:1.33333337"
       d="M 0,96.438324 C 0,95.946067 1.0016281,94.436524 2.2258402,93.083786 4.307474,90.783607 4.2992703,90.512815 2.0992139,88.904095 -1.2736592,86.437789 -0.20521998,80.790268 3.7400563,80.230984 10.580134,79.261332 13.039811,87.290083 7.9032268,93.820191 5.4397503,96.951994 0,98.754042 0,96.438324 Z m 14.162155,-0.05395 c -0.521925,-0.521926 0.376028,-1.948394 1.995452,-3.169927 l 2.944407,-2.220968 -2.88434,-1.543652 c -5.132483,-2.746822 -2.834498,-9.449828 3.239675,-9.449828 3.254386,0 4.542652,2.299672 4.542652,8.109049 0,5.851431 -6.659746,11.453427 -9.837846,8.275328 z M 35.878833,83.34236 C 21.775802,78.812768 10.562435,63.288182 10.490235,48.192574 10.409337,31.278242 17.456459,19.965039 32.666668,12.591307 50.569655,3.9121463 73.250113,12.035746 82.242547,30.348205 91.555912,49.314222 83.955188,71.826941 64.96459,81.524084 57.7811,85.192179 44.268419,86.036915 35.878833,83.34236 Z M 56.76703,73.666669 c 1.08036,-2.75 2.554099,-5.9 3.274976,-7 4.342844,-6.626831 4.489611,-7.928919 1.27894,-11.346522 -2.460303,-2.618871 -4.434495,-3.320145 -9.346712,-3.320145 -4.534277,0 -6.88379,-0.725083 -8.640899,-2.666667 -1.327315,-1.466667 -3.10563,-2.666667 -3.951811,-2.666667 -0.84618,0 -2.703188,-0.855177 -4.126683,-1.900395 -2.491399,-1.829336 -2.442953,-1.955825 1.295612,-3.38288 2.68196,-1.023736 4.311715,-1.054558 5.266667,-0.09961 0.760585,0.760592 2.23286,1.382888 3.271723,1.382888 1.84963,0 1.747638,-1.751909 -0.406444,-6.98147 -0.714826,-1.735413 -0.05131,-2.657806 2.650936,-3.685197 2.337384,-0.888672 3.342891,-2.051916 2.860439,-3.309164 C 49.784588,27.624513 50.023595,26.397442 50.7249,25.964011 54.192594,23.820859 49.798495,16 45.126684,16 c -1.371484,0 -2.460016,0.948939 -2.460016,2.144545 0,1.623689 -0.812376,1.94065 -3.344839,1.305042 -1.954632,-0.490581 -4.952692,-0.008 -7.213336,1.160976 -4.091205,2.115646 -12.108492,11.008301 -12.108492,13.430559 0,3.42647 8.666573,12.747181 15.370508,16.530648 6.486318,3.66065 7.297134,4.597412 7.304944,8.439631 0.0048,2.377064 1.200879,6.121934 2.657882,8.321934 1.457002,2.200001 2.653049,5.650001 2.657881,7.666667 0.0073,3.039484 0.59059,3.666667 3.410155,3.666667 2.692375,0 3.810812,-1.042219 5.365659,-5 z M 80.000003,47.923761 c 0,-4.299834 -2.865658,-14.590427 -4.063049,-14.590427 -1.390745,0 -4.932913,3.544926 -6.536884,6.541973 -1.903715,3.557124 2.954479,10.791361 7.247002,10.791361 2.495106,0 3.352931,-0.701753 3.352931,-2.742907 z m 4.046912,-25.169439 c -2.747479,-5.133709 -0.457172,-12.198514 4.719169,-14.5570129 4.31372,-1.9654628 5.887494,0.7953613 2.087364,3.6618039 -2.847815,2.14811 -2.848859,2.168961 -0.19176,3.828346 2.99217,1.86864 3.492492,5.625031 1.071648,8.045875 -2.402483,2.402483 -6.130848,1.927604 -7.686421,-0.979012 z m 13.376099,0.07991 c -2.398554,-4.48174 -1.607167,-8.188538 2.659036,-12.454745 3.00169,-3.0016812 4.47546,-3.6886442 5.5685,-2.5956082 1.09304,1.0930362 0.86911,2.1685944 -0.84609,4.0638682 -2.15726,2.383744 -2.16669,2.670239 -0.12547,3.81256 1.46223,0.818305 2.05755,2.546447 1.76404,5.120747 -0.35185,3.085967 -1.17915,3.970656 -4.02001,4.298855 -2.488102,0.287447 -4.010174,-0.396171 -5.000001,-2.245677 z"
       id="path80"
       inkscape:connector-curvature="0" />
    <path
       style="fill:#494949;fill-opacity:1;stroke-width:1.33333337"
       d="M 0.70801176,96.0669 C 0.2775266,95.370362 1.2400694,94.096828 2.8469957,93.236827 L 5.76868,91.67319 2.7608794,89.404401 c -3.9676677,-2.992817 -3.37381398,-8.556334 0.9791769,-9.173417 4.1479887,-0.588022 6.9266107,1.987025 6.9266107,6.419133 0,6.340641 -7.4853417,13.418693 -9.95865524,9.416783 z m 13.33333424,0 c -0.430486,-0.696538 0.49157,-1.948404 2.049013,-2.781922 l 2.831714,-1.515487 -2.868782,-2.672676 c -3.252344,-3.03002 -3.147783,-6.12173 0.280043,-8.280415 6.24284,-3.93145 10.392667,7.443372 4.86294,13.329496 -3.13572,3.337822 -5.8319,4.06171 -7.154928,1.921004 z M 37.176378,83.574359 C 25.515837,79.209734 16.138898,70.327952 12.533499,60.232766 11.571118,57.538079 10.757379,51.401142 10.725191,46.595127 10.504683,13.671083 51.505807,-3.0719724 74.947388,20.369607 89.770921,35.193142 89.92468,59.319769 75.288892,73.955558 66.007354,83.237095 48.249018,87.718928 37.176378,83.574359 Z m 20.126706,-10.90769 c 1.116638,-2.933333 3.194559,-7.052472 4.617601,-9.153642 2.347346,-3.465936 2.405072,-4.146178 0.622301,-7.333333 -1.712809,-3.062082 -2.943475,-3.564355 -9.587351,-3.912898 -4.192265,-0.219929 -7.6223,-0.991252 -7.6223,-1.714049 0,-0.722799 -2.7,-2.471533 -6,-3.886079 -3.300001,-1.414545 -6.000001,-2.908073 -6.000001,-3.318951 0,-1.695953 7.11969,-3.428026 8.483786,-2.06393 0.760585,0.760585 2.23286,1.382881 3.271723,1.382881 1.827854,0 1.742784,-1.784288 -0.32242,-6.762507 -0.599648,-1.445464 0.221501,-2.592915 2.646153,-3.69766 2.21122,-1.007499 3.241348,-2.316532 2.776416,-3.528125 C 49.782436,27.618906 50.023595,26.397442 50.7249,25.964011 54.192594,23.820859 49.798495,16 45.126684,16 c -1.353008,0 -2.460016,0.927189 -2.460016,2.060418 0,1.635588 -0.969508,1.878537 -4.702107,1.178297 -4.34136,-0.814444 -5.210855,-0.373372 -11.333334,5.749107 -3.647174,3.647175 -6.631226,7.808942 -6.631226,9.248371 0,4.034951 8.900652,13.49963 16.149531,17.172915 5.969679,3.025066 6.517136,3.702943 6.517136,8.069717 0,2.748304 1.129336,6.20295 2.666667,8.157349 1.466666,1.864566 2.666667,5.149056 2.666667,7.29887 0,3.470449 0.407764,3.861442 3.636416,3.486854 2.856944,-0.331461 4.071602,-1.565104 5.666666,-5.755229 z M 79.992566,46.921312 c -0.0041,-1.973388 -0.642402,-5.874593 -1.418472,-8.669347 -1.72342,-6.206309 -4.639198,-6.167544 -8.30573,0.110427 -2.391182,4.094268 -2.410713,4.555092 -0.327794,7.734029 2.212682,3.376978 7.170252,6.114031 9.059432,5.001673 0.55,-0.323843 0.996654,-2.203395 0.992564,-4.176782 z M 83.93354,22.542479 c -2.773835,-5.182956 1.6926,-14.5424788 6.93978,-14.5424788 3.302111,0 3.118311,2.2205348 -0.33686,4.0696858 l -2.796875,1.496842 2.796875,1.959008 c 3.111679,2.179505 3.635178,5.769497 1.196876,8.207798 -2.46338,2.46338 -6.144932,1.901289 -7.799796,-1.190855 z m 13.446708,0.211843 c -0.759134,-1.418456 -1.380245,-3.73754 -1.380245,-5.153521 0,-3.631617 5.034077,-9.6008008 8.096777,-9.6008008 3.19421,0 3.33958,2.1034178 0.26431,3.8244288 -2.18522,1.22291 -2.18522,1.423266 0,3.837907 2.69807,2.981333 2.94706,5.829517 0.70558,8.070998 -2.40248,2.402483 -6.130848,1.927604 -7.686422,-0.979012 z"
       id="path78"
       inkscape:connector-curvature="0" />
    <path
       style="fill:#333333;fill-opacity:1;stroke-width:1.33333337"
       d="M 0.70801176,96.0669 C 0.2775266,95.370362 1.2400694,94.096828 2.8469957,93.236827 L 5.76868,91.67319 2.693671,89.353705 c -4.0733977,-3.072569 -2.91051727,-9.353702 1.7317318,-9.353702 6.7956242,0 8.5795412,8.449601 2.9685368,14.060607 -3.4809815,3.480981 -5.4157094,4.061548 -6.68592784,2.00629 z M 14.666667,95.81366 c 0,-0.835822 1.037493,-2.27831 2.305543,-3.20553 2.138576,-1.563766 2.066157,-1.882178 -1,-4.396791 -2.702639,-2.216484 -3.036288,-3.151754 -1.829299,-5.127803 3.255175,-5.329282 9.85709,-2.940517 9.85709,3.566581 0,2.011311 -1.243548,5.237845 -2.76344,7.170074 -2.823614,3.589643 -6.569894,4.726356 -6.569894,1.993469 z M 37.564423,83.434639 C 9.7697618,74.375118 1.5437442,40.949011 22.05995,20.432806 45.625367,-3.1326122 85.384155,13.192428 85.489352,46.477049 c 0.04956,15.682366 -7.249736,27.723113 -21.137005,34.867082 -7.101692,3.653293 -19.11662,4.590928 -26.787924,2.090508 z m 19.738661,-10.76797 c 1.116638,-2.933333 3.194559,-7.052472 4.617601,-9.153642 2.347108,-3.465582 2.404946,-4.146502 0.622909,-7.333333 -1.686928,-3.016747 -2.984291,-3.571247 -9.183676,-3.925159 -5.320774,-0.303753 -7.695903,-1.092672 -9.031849,-3 -0.996936,-1.423327 -2.718034,-2.587867 -3.824661,-2.587867 -1.106628,0 -3.322606,-0.703599 -4.924395,-1.563553 -2.881184,-1.546823 -2.870236,-1.580812 1.023251,-3.176683 2.884564,-1.182332 4.559735,-1.223348 6.272695,-0.153587 3.186126,1.989768 4.531464,0.244628 2.77807,-3.60365 -1.575738,-3.458371 -0.066,-6.169194 3.435814,-6.169194 1.232089,0 1.646493,-0.926741 1.19184,-2.665339 -0.383351,-1.465936 -0.153329,-3.001347 0.511159,-3.412023 1.739844,-1.075282 1.487092,-6.443706 -0.39184,-8.322638 -2.364975,-2.364975 -7.733334,-2.013759 -7.733334,0.50594 0,1.636946 -0.873388,1.914112 -3.921797,1.244569 -2.21969,-0.487525 -5.257777,-0.160979 -7.000001,0.752391 -4.666136,2.446244 -11.742651,10.876505 -11.743827,13.990435 -0.0016,4.158883 8.791762,13.587836 16.148489,17.315772 5.908044,2.993832 6.517136,3.733519 6.517136,7.914462 0,2.536589 1.197757,6.576481 2.661683,8.977539 1.463925,2.401059 2.663925,5.755413 2.666666,7.454123 0.0041,2.576424 0.607969,3.018605 3.641401,2.666666 2.856944,-0.331461 4.071602,-1.565104 5.666666,-5.755229 z M 79.992566,46.921312 c -0.01214,-5.858949 -2.646381,-13.587978 -4.63111,-13.587978 -1.015595,0 -3.191024,1.88816 -4.834287,4.19591 -2.731026,3.835372 -2.821291,4.492481 -1.050489,7.647383 2.022693,3.603681 7.596862,7.141315 9.448877,5.996707 0.590945,-0.365224 1.071099,-2.278634 1.067009,-4.252022 z m 4.722725,-24.200918 c -3.97941,-4.397199 0.339124,-14.7203938 6.158029,-14.7203938 3.266784,0 3.115155,1.6160674 -0.35496,3.7831908 l -2.814976,1.757981 2.814976,1.971686 c 3.127824,2.190813 3.657935,5.777517 1.214976,8.220476 -2.279195,2.279195 -4.303061,1.987083 -7.018045,-1.01294 z M 97.92017,22.065285 c -3.327339,-5.07816 0.689458,-14.0652848 6.28648,-14.0652848 3.26679,0 3.11516,1.6160674 -0.35496,3.7831908 l -2.81497,1.757981 2.81497,1.971686 c 3.12783,2.190813 3.65794,5.777517 1.21498,8.220476 -2.46235,2.462348 -4.79725,1.917364 -7.1465,-1.668049 z"
       id="path76"
       inkscape:connector-curvature="0" />
  </g>
</svg>
